<svg width="16" height="16" viewBox="0 0 16 16" fill="none" xmlns="http://www.w3.org/2000/svg">
<path fill-rule="evenodd" clip-rule="evenodd" d="M8.00001 14.4001C11.5346 14.4001 14.4 11.5347 14.4 8.0001C14.4 4.46547 11.5346 1.6001 8.00001 1.6001C4.46538 1.6001 1.60001 4.46547 1.60001 8.0001C1.60001 11.5347 4.46538 14.4001 8.00001 14.4001ZM11.0852 6.553C11.2802 6.28501 11.2209 5.90976 10.9529 5.71486C10.6849 5.51995 10.3097 5.5792 10.1148 5.84719L7.32776 9.67932L5.82427 8.17583C5.58996 7.94152 5.21006 7.94152 4.97574 8.17583C4.74143 8.41015 4.74143 8.79005 4.97574 9.02436L6.97574 11.0244C7.09982 11.1484 7.272 11.212 7.44694 11.1983C7.62188 11.1845 7.78204 11.0949 7.88525 10.953L11.0852 6.553Z" fill="#388E3C"/>
</svg>
