<svg width="16" height="16" viewBox="0 0 16 16" fill="none" xmlns="http://www.w3.org/2000/svg">
<g id="icon-mini/map-pin">
<path id="vector" fill-rule="evenodd" clip-rule="evenodd" d="M7.75206 15.1465L7.75431 15.1475C7.912 15.2161 8 15.2001 8 15.2001C8 15.2001 8.088 15.2161 8.24633 15.1472L8.24794 15.1465L8.25252 15.1444L8.26705 15.1377C8.27907 15.1321 8.29573 15.1243 8.31673 15.1142C8.3587 15.0939 8.41804 15.0645 8.49226 15.0258C8.64062 14.9485 8.84897 14.8336 9.09733 14.6797C9.59299 14.3725 10.2539 13.9062 10.9164 13.2676C12.2417 11.9902 13.6 9.99408 13.6 7.2001C13.6 4.1073 11.0928 1.6001 8 1.6001C4.90721 1.6001 2.4 4.1073 2.4 7.2001C2.4 9.99408 3.75827 11.9902 5.08362 13.2676C5.74611 13.9062 6.40702 14.3725 6.90268 14.6797C7.15103 14.8336 7.35938 14.9485 7.50774 15.0258C7.58196 15.0645 7.6413 15.0939 7.68328 15.1142C7.70427 15.1243 7.72093 15.1321 7.73296 15.1377L7.74748 15.1444L7.75206 15.1465ZM8 9.0001C8.99411 9.0001 9.8 8.19421 9.8 7.2001C9.8 6.20599 8.99411 5.4001 8 5.4001C7.00589 5.4001 6.2 6.20599 6.2 7.2001C6.2 8.19421 7.00589 9.0001 8 9.0001Z" fill="#737373"/>
</g>
</svg>
