<svg width="16" height="8" viewBox="0 0 16 8" fill="none" xmlns="http://www.w3.org/2000/svg">
<path id="Vector" fill-rule="evenodd" clip-rule="evenodd" d="M7.50623 0.186073C7.64636 0.0659992 7.82482 0 8.00936 0C8.1939 0 8.37235 0.0659992 8.51249 0.186073L15.7295 6.37209C15.8067 6.43816 15.8701 6.51878 15.9161 6.60936C15.9621 6.69994 15.9898 6.79869 15.9977 6.89998C16.0055 7.00127 15.9934 7.10311 15.9619 7.1997C15.9303 7.29628 15.8801 7.38571 15.814 7.46289C15.748 7.54006 15.6673 7.60347 15.5768 7.64948C15.4862 7.6955 15.3874 7.72322 15.2862 7.73107C15.1849 7.73892 15.083 7.72674 14.9864 7.69523C14.8899 7.66373 14.8004 7.6135 14.7232 7.54743L8.00936 1.79134L1.29547 7.54537C1.21902 7.61538 1.12927 7.6693 1.03157 7.70393C0.933862 7.73856 0.83019 7.75319 0.726717 7.74695C0.623243 7.74071 0.522079 7.71373 0.429241 7.66761C0.336403 7.62149 0.253786 7.55718 0.186301 7.4785C0.118816 7.39981 0.0678413 7.30836 0.0364075 7.20957C0.00497381 7.11079 -0.00627709 7.0067 0.00332346 6.90349C0.012924 6.80027 0.0431801 6.70004 0.0922929 6.60875C0.141406 6.51746 0.208373 6.43698 0.289212 6.37209L7.50623 0.186073Z" fill="#222222"/>
</svg>
